<?xml version="1.0" standalone="no"?><!DOCTYPE svg PUBLIC "-//W3C//DTD SVG 1.1//EN" "http://www.w3.org/Graphics/SVG/1.1/DTD/svg11.dtd"><svg height="1024" node-id="1" sillyvg="true" template-height="1024" template-width="1024" version="1.1" viewBox="0 0 1024 1024" width="1024" xmlns="http://www.w3.org/2000/svg" xmlns:xlink="http://www.w3.org/1999/xlink"><defs node-id="65"></defs><g node-id="184"><path d="M 1024.00 1024.00 L 0.00 1024.00 C 0.00 682.67 0.00 341.33 0.00 0.00 C 341.33 0.00 682.67 0.00 1024.00 0.00 L 1024.00 1024.00 Z M 755.83 237.52 C 718.39 285.89 675.50 324.87 617.96 345.12 C 613.91 334.54 613.49 334.44 603.00 337.69 C 583.04 343.87 564.47 353.15 545.99 362.71 C 533.79 369.02 521.19 374.56 508.28 380.68 C 506.07 374.88 504.17 369.89 502.20 364.71 C 507.66 363.69 512.42 362.98 517.08 361.88 C 534.62 357.75 551.21 351.33 564.30 338.52 C 567.96 334.94 570.47 329.49 571.84 324.44 C 573.22 319.35 570.03 317.29 564.79 318.66 C 563.65 318.96 562.47 319.13 560.66 319.48 C 561.36 318.47 561.57 318.02 561.90 317.73 C 562.53 317.19 563.19 316.65 563.93 316.29 C 571.91 312.34 578.51 306.82 584.46 300.14 C 594.05 289.37 593.93 275.85 582.51 266.91 C 569.25 256.54 553.81 253.58 536.71 256.03 C 539.36 249.30 542.48 242.60 544.63 235.60 C 546.82 228.45 549.15 221.05 549.44 213.69 C 549.82 204.14 542.73 194.95 529.84 193.08 C 517.57 191.30 505.85 193.85 494.66 198.65 C 485.60 202.54 476.82 207.10 467.94 211.35 C 468.86 203.08 466.94 199.36 458.35 197.69 C 451.67 196.39 444.33 195.85 437.73 197.19 C 405.67 203.68 381.72 219.95 372.92 254.08 C 370.50 254.52 367.55 254.95 364.65 255.60 C 354.78 257.82 344.75 259.52 335.12 262.51 C 320.73 266.98 315.88 280.60 324.18 291.32 C 325.86 293.48 327.61 295.59 329.29 297.67 C 327.33 298.06 324.75 298.49 322.22 299.09 C 316.50 300.46 313.82 303.93 313.00 309.85 C 312.22 315.49 315.36 318.94 319.18 322.04 C 326.50 327.99 335.21 330.58 344.35 332.04 C 348.12 332.64 351.90 333.23 355.68 333.82 C 349.16 335.77 342.68 336.39 336.41 337.89 C 327.94 339.92 325.66 347.45 330.86 354.43 C 334.31 359.07 339.28 360.98 344.55 361.86 C 353.55 363.37 362.63 364.34 371.65 365.54 C 369.13 376.36 371.90 381.15 383.72 382.98 C 391.00 384.10 398.73 384.39 405.96 383.20 C 417.02 381.39 427.81 377.98 439.23 375.12 C 440.42 378.81 441.72 382.84 442.94 386.60 C 436.26 389.80 429.85 392.50 423.79 395.84 C 406.83 405.18 393.02 418.49 379.15 431.74 C 353.49 456.25 327.90 480.83 301.84 504.91 C 296.12 510.20 297.53 512.47 303.57 514.85 C 308.58 516.83 313.55 518.92 318.86 521.09 C 317.05 523.79 315.69 525.87 314.28 527.92 C 280.33 576.92 246.27 625.85 212.48 674.95 C 203.90 687.42 196.07 700.41 188.07 713.27 C 186.57 715.69 184.59 718.56 187.35 721.48 C 190.04 724.32 193.18 725.67 197.25 724.57 C 198.58 724.21 200.77 724.33 201.58 725.18 C 205.49 729.25 209.63 730.13 214.26 726.93 C 220.25 733.27 223.10 733.95 230.17 730.89 C 235.88 734.85 236.96 734.76 241.89 729.61 C 243.50 727.93 245.10 726.20 246.44 724.31 C 266.29 696.34 286.42 668.57 305.83 640.30 C 326.83 609.70 347.18 578.64 367.69 547.71 C 369.54 544.92 371.01 544.22 374.02 545.92 C 377.33 547.79 380.93 549.16 384.45 550.66 C 390.37 553.19 392.12 552.90 394.84 547.22 C 399.52 537.49 403.68 527.50 408.04 517.62 C 409.48 514.35 410.86 511.05 412.26 507.76 C 412.95 509.59 412.64 511.03 412.43 512.49 C 410.94 523.02 409.48 533.55 407.97 544.07 C 407.40 548.05 409.17 549.55 413.04 549.33 C 416.30 549.15 419.57 549.29 423.37 549.29 C 415.37 583.61 407.45 617.59 399.19 653.00 C 410.14 648.45 419.47 644.75 427.39 638.16 C 439.01 628.49 445.93 616.18 448.85 601.43 C 449.26 599.37 450.48 597.47 451.32 595.50 C 451.80 595.69 452.29 595.88 452.77 596.07 C 452.83 597.19 453.08 598.34 452.92 599.44 C 450.39 616.87 443.85 632.43 428.99 642.69 C 420.74 648.38 411.15 652.11 402.22 656.84 C 400.64 657.67 398.44 658.86 398.11 660.25 C 396.26 668.12 394.93 676.11 393.37 684.05 C 389.94 701.54 386.68 719.06 382.94 736.48 C 380.73 746.77 377.63 756.87 375.14 767.11 C 370.14 787.66 365.47 808.28 360.33 828.79 C 355.06 849.82 349.38 870.75 343.94 891.74 C 342.25 898.28 342.46 898.53 348.62 901.01 C 345.01 917.34 341.40 933.65 337.69 950.42 L 328.79 950.42 C 334.24 952.44 339.00 954.24 343.80 955.95 C 344.55 956.22 345.45 956.12 346.28 956.10 C 351.29 955.94 356.31 955.70 361.32 955.59 C 381.61 955.15 401.90 954.63 422.19 954.38 C 429.06 954.30 436.07 955.46 441.06 949.59 C 440.03 948.29 438.29 947.11 438.15 945.77 C 436.95 933.72 428.10 928.51 417.32 927.57 C 411.32 927.05 405.24 927.48 398.90 927.48 C 401.09 918.77 403.19 910.44 405.34 901.93 C 411.09 902.61 414.27 899.29 416.92 895.26 C 418.66 892.62 420.38 889.94 421.78 887.12 C 445.91 838.42 470.08 789.73 494.02 740.93 C 500.14 728.46 505.50 715.61 511.56 702.18 C 512.77 704.09 513.68 705.38 514.44 706.76 C 519.75 716.50 525.12 726.21 530.28 736.02 C 536.00 746.90 541.59 757.86 547.12 768.84 C 549.42 773.42 551.30 778.21 553.60 782.79 C 559.95 795.44 566.54 807.97 572.79 820.68 C 578.82 832.95 584.46 845.41 590.41 857.71 C 596.51 870.34 602.92 882.81 608.93 895.49 C 613.73 905.62 613.55 905.63 624.66 904.84 C 625.75 904.76 627.82 906.34 627.98 907.37 C 630.03 920.32 631.82 933.30 633.66 946.18 C 632.25 946.84 631.18 947.34 629.50 948.13 C 631.71 948.98 633.68 949.11 634.28 950.09 C 636.21 953.22 638.90 953.41 642.06 953.18 C 653.50 952.37 664.93 951.26 676.39 951.03 C 693.16 950.70 709.95 950.98 726.73 951.10 C 729.83 951.12 732.54 950.79 733.04 947.13 C 734.16 938.81 726.76 928.72 718.63 925.98 C 709.82 923.00 701.02 923.20 692.03 924.15 C 690.79 924.28 688.49 923.79 688.31 923.15 C 686.21 915.40 684.41 907.57 682.52 899.71 C 689.10 898.72 691.46 895.26 689.59 889.33 C 689.39 888.70 689.21 888.05 689.02 887.42 C 675.80 843.41 663.28 799.17 649.17 755.44 C 629.55 694.59 608.76 634.12 588.44 573.50 C 584.50 561.75 580.44 550.04 576.31 537.94 C 580.09 537.94 583.41 537.92 586.73 537.94 C 592.23 537.98 593.17 537.11 591.70 531.92 C 587.06 515.64 582.52 499.32 577.31 483.22 C 573.44 471.26 568.59 459.62 564.55 448.82 C 582.66 442.89 600.65 437.16 618.52 431.09 C 627.41 428.07 627.38 427.79 626.15 418.65 C 625.71 415.35 626.09 413.28 629.89 411.96 C 648.55 405.47 665.46 395.46 682.10 385.02 C 704.75 370.80 727.07 355.80 743.62 334.54 C 762.93 309.75 780.73 283.77 799.04 258.21 C 801.93 254.17 804.36 249.74 806.50 245.25 C 808.88 240.25 806.76 237.33 801.34 237.84 C 798.41 238.11 795.54 238.97 793.85 239.31 C 791.01 237.14 789.03 234.67 786.55 234.00 C 783.82 233.25 780.63 234.15 777.80 234.32 C 797.20 213.87 817.52 193.81 831.19 167.51 C 827.67 167.01 825.33 166.95 823.15 166.32 C 805.97 161.32 788.77 156.41 771.71 151.02 C 767.37 149.65 765.78 150.45 764.67 154.66 C 761.60 166.24 755.27 175.81 746.31 183.79 C 739.10 190.21 732.06 196.84 725.23 203.67 C 720.88 208.02 721.55 209.12 726.36 212.95 C 736.33 220.90 745.98 229.27 755.85 237.54 Z M 365.73 189.11 C 368.89 188.09 373.79 186.57 378.64 184.91 C 406.52 175.36 433.20 163.01 459.64 150.09 C 462.80 148.55 463.75 147.03 460.91 144.24 C 435.38 119.15 409.90 94.00 384.37 68.92 C 383.50 68.06 382.19 67.65 381.08 67.03 C 380.43 68.25 379.42 69.40 379.17 70.70 C 375.06 92.06 370.85 113.41 367.07 134.83 C 364.24 150.87 361.99 167.01 359.47 183.10 C 358.92 186.59 359.57 189.14 365.74 189.11 Z M 708.19 74.89 C 707.16 74.35 706.02 73.36 704.77 73.19 C 703.54 73.02 702.22 73.83 700.91 73.96 C 683.10 75.69 665.44 75.39 648.22 69.76 C 645.85 68.99 644.20 69.13 644.10 72.04 C 643.67 84.98 638.49 96.49 633.57 108.14 C 629.31 118.23 625.57 128.53 621.53 138.71 C 620.30 141.80 621.27 143.36 624.43 144.10 C 628.46 145.05 632.52 146.00 636.42 147.38 C 649.07 151.85 661.70 156.39 674.23 161.18 C 678.26 162.72 680.42 162.25 681.42 157.75 C 682.24 154.03 683.52 150.41 684.72 146.79 C 691.95 125.06 699.24 103.35 706.47 81.62 C 707.10 79.73 707.46 77.76 708.18 74.90 Z M 596.60 233.38 C 602.77 239.08 608.94 243.78 613.81 249.57 C 618.69 255.37 622.18 262.33 626.55 268.59 C 627.14 269.43 629.64 269.80 630.72 269.28 C 638.79 265.35 646.82 261.32 654.62 256.88 C 656.09 256.04 657.29 253.20 657.18 251.36 C 656.79 244.74 656.38 238.01 654.88 231.57 C 652.38 220.77 649.31 210.07 645.94 199.50 C 644.41 194.72 642.76 194.96 639.37 198.34 C 633.38 204.32 627.31 210.28 620.77 215.63 C 613.57 221.51 605.80 226.68 596.62 233.37 Z M 294.57 146.88 C 292.46 144.27 290.23 141.52 287.63 138.31 C 284.47 143.41 291.13 144.92 290.63 148.73 C 288.52 149.63 286.33 150.56 284.15 151.49 C 284.15 151.95 284.17 152.41 284.18 152.87 C 285.48 152.97 287.13 153.63 288.01 153.07 C 291.92 150.58 294.34 151.96 296.42 155.51 C 297.51 157.36 298.83 159.10 300.27 160.70 C 301.18 161.71 302.50 162.35 303.64 163.16 C 303.98 162.80 304.32 162.45 304.66 162.09 C 301.97 158.10 299.27 154.11 296.52 150.04 C 299.67 148.50 302.28 147.23 304.88 145.95 C 304.64 145.32 304.40 144.70 304.17 144.07 C 301.22 144.93 298.27 145.80 294.57 146.88 Z M 532.72 136.96 C 533.36 136.54 534.01 136.13 534.65 135.71 C 532.03 131.47 529.42 127.23 526.80 122.98 C 528.45 121.89 529.80 120.99 531.16 120.09 C 531.22 119.50 531.28 118.92 531.33 118.33 C 525.15 121.95 522.22 117.72 519.15 113.85 C 518.67 114.27 518.18 114.70 517.70 115.12 C 518.74 117.14 519.78 119.17 520.94 121.43 C 518.93 122.51 516.92 123.59 514.92 124.68 C 515.15 125.29 515.38 125.90 515.60 126.51 C 518.19 125.78 520.78 125.04 523.55 124.26 C 526.58 128.47 529.64 132.73 532.70 136.98 Z M 277.33 265.51 C 277.89 265.10 278.45 264.69 279.01 264.29 C 276.23 259.74 273.45 255.20 270.67 250.65 C 272.82 248.85 274.52 247.44 276.21 246.03 C 275.98 245.64 275.74 245.25 275.51 244.86 C 273.31 245.93 271.10 247.00 268.98 248.02 C 267.39 245.75 265.98 243.73 264.56 241.71 C 264.17 242.03 263.79 242.34 263.40 242.66 C 264.97 247.09 264.74 251.55 262.70 256.04 C 264.60 255.07 266.49 254.10 268.63 253.02 C 271.53 257.19 274.43 261.36 277.33 265.52 Z M 681.86 236.35 C 682.80 235.75 684.50 235.30 684.91 234.31 C 688.20 226.48 690.42 218.37 689.68 209.76 C 689.57 208.48 688.69 207.27 688.35 206.46 C 686.22 216.23 684.14 225.81 681.85 236.35 Z M 291.40 374.45 C 286.15 368.37 280.89 362.29 275.27 355.79 C 274.95 356.50 273.83 357.91 274.15 358.47 C 278.20 365.40 282.58 372.09 291.39 374.45 Z M 285.44 336.89 C 282.84 340.63 283.83 347.97 288.31 353.47 C 289.11 354.46 290.52 354.95 291.62 355.66 C 289.36 348.81 287.37 342.76 285.44 336.89 Z M 666.07 221.01 C 669.68 221.88 670.06 219.12 670.30 216.74 C 670.63 213.35 672.52 209.38 667.96 207.09 C 667.33 211.72 666.74 216.10 666.07 221.01 Z" fill="#ffffff" fill-rule="nonzero" group-id="1" node-id="70" stroke="none" target-height="1024" target-width="1024" target-x="0" target-y="0"></path><path d="M 755.83 237.52 C 745.96 229.25 736.31 220.88 726.34 212.93 C 721.53 209.09 720.86 208.00 725.21 203.65 C 732.04 196.82 739.08 190.19 746.29 183.77 C 755.25 175.79 761.58 166.22 764.65 154.64 C 765.77 150.42 767.35 149.62 771.69 151.00 C 788.74 156.40 805.95 161.31 823.13 166.30 C 825.30 166.93 827.64 166.99 831.17 167.49 C 817.51 193.80 797.19 213.86 777.78 234.30 C 780.61 234.13 783.79 233.23 786.53 233.98 C 789.01 234.66 790.99 237.13 793.83 239.29 C 795.52 238.94 798.39 238.09 801.32 237.82 C 806.75 237.32 808.87 240.24 806.48 245.23 C 804.34 249.72 801.91 254.15 799.02 258.19 C 780.71 283.75 762.91 309.73 743.60 334.52 C 727.04 355.78 704.72 370.78 682.08 385.00 C 665.44 395.45 648.53 405.46 629.87 411.94 C 626.07 413.26 625.69 415.34 626.13 418.63 C 627.36 427.77 627.39 428.05 618.50 431.07 C 600.63 437.14 582.64 442.87 564.53 448.80 C 568.57 459.59 573.42 471.24 577.29 483.20 C 582.50 499.30 587.04 515.62 591.68 531.90 C 593.16 537.09 592.21 537.96 586.71 537.92 C 583.39 537.90 580.07 537.92 576.29 537.92 C 580.42 550.02 584.48 561.73 588.42 573.48 C 608.74 634.10 629.53 694.57 649.15 755.42 C 663.25 799.15 675.77 843.39 689.00 887.40 C 689.19 888.04 689.37 888.68 689.57 889.31 C 691.44 895.23 689.08 898.69 682.50 899.69 C 684.39 907.55 686.19 915.38 688.29 923.13 C 688.47 923.78 690.77 924.26 692.01 924.13 C 700.99 923.19 709.80 922.99 718.61 925.96 C 726.74 928.71 734.15 938.80 733.02 947.11 C 732.53 950.77 729.82 951.10 726.71 951.08 C 709.93 950.96 693.14 950.67 676.37 951.01 C 664.92 951.24 653.48 952.35 642.04 953.16 C 638.88 953.38 636.19 953.20 634.26 950.07 C 633.66 949.10 631.69 948.96 629.48 948.11 C 631.16 947.32 632.23 946.82 633.64 946.16 C 631.80 933.28 630.01 920.30 627.96 907.35 C 627.80 906.31 625.72 904.74 624.64 904.82 C 613.53 905.61 613.71 905.60 608.91 895.47 C 602.90 882.80 596.49 870.32 590.39 857.69 C 584.44 845.38 578.80 832.92 572.77 820.66 C 566.53 807.96 559.93 795.43 553.58 782.77 C 551.28 778.19 549.41 773.40 547.10 768.82 C 541.57 757.84 535.99 746.88 530.26 736.00 C 525.10 726.18 519.73 716.48 514.42 706.74 C 513.67 705.36 512.75 704.07 511.54 702.16 C 505.48 715.60 500.12 728.44 494.00 740.91 C 470.06 789.71 445.89 838.39 421.76 887.10 C 420.36 889.92 418.64 892.60 416.90 895.24 C 414.25 899.27 411.07 902.59 405.32 901.91 C 403.18 910.42 401.08 918.75 398.88 927.46 C 405.21 927.46 411.30 927.03 417.30 927.55 C 428.08 928.48 436.93 933.70 438.13 945.75 C 438.26 947.09 440.01 948.27 441.04 949.57 C 436.05 955.44 429.04 954.28 422.17 954.36 C 401.88 954.61 381.59 955.13 361.30 955.57 C 356.28 955.68 351.27 955.92 346.26 956.08 C 345.43 956.11 344.53 956.20 343.78 955.93 C 338.98 954.22 334.21 952.42 328.77 950.40 L 337.67 950.40 C 341.38 933.63 344.99 917.32 348.60 900.99 C 342.44 898.51 342.23 898.25 343.92 891.72 C 349.36 870.73 355.04 849.80 360.31 828.77 C 365.45 808.26 370.12 787.63 375.12 767.09 C 377.61 756.85 380.72 746.75 382.92 736.46 C 386.66 719.04 389.91 701.51 393.35 684.03 C 394.91 676.09 396.25 668.10 398.09 660.23 C 398.42 658.83 400.62 657.65 402.20 656.82 C 411.13 652.09 420.73 648.37 428.97 642.67 C 443.84 632.40 450.37 616.85 452.90 599.42 C 453.06 598.33 452.81 597.18 452.75 596.05 C 452.27 595.86 451.78 595.67 451.30 595.48 C 450.46 597.45 449.23 599.35 448.83 601.41 C 445.91 616.16 438.99 628.47 427.37 638.14 C 419.45 644.73 410.11 648.42 399.17 652.98 C 407.43 617.57 415.35 583.58 423.35 549.27 C 419.56 549.27 416.28 549.13 413.02 549.31 C 409.15 549.52 407.38 548.03 407.95 544.05 C 409.45 533.52 410.91 522.99 412.41 512.47 C 412.62 511.01 412.92 509.57 412.24 507.74 C 410.84 511.03 409.46 514.33 408.02 517.60 C 403.66 527.49 399.50 537.47 394.82 547.20 C 392.09 552.88 390.35 553.17 384.43 550.64 C 380.92 549.14 377.31 547.78 374.00 545.90 C 370.99 544.20 369.51 544.91 367.67 547.69 C 347.16 578.63 326.81 609.68 305.81 640.28 C 286.41 668.55 266.28 696.33 246.42 724.29 C 245.08 726.18 243.48 727.91 241.87 729.59 C 236.94 734.74 235.86 734.83 230.15 730.87 C 223.08 733.93 220.22 733.26 214.24 726.91 C 209.60 730.11 205.46 729.24 201.56 725.16 C 200.75 724.31 198.56 724.19 197.23 724.55 C 193.16 725.65 190.01 724.30 187.33 721.46 C 184.57 718.54 186.55 715.67 188.05 713.25 C 196.05 700.39 203.88 687.40 212.46 674.93 C 246.25 625.82 280.31 576.90 314.26 527.90 C 315.68 525.86 317.03 523.77 318.84 521.07 C 313.53 518.90 308.57 516.81 303.55 514.83 C 297.51 512.45 296.10 510.18 301.82 504.89 C 327.88 480.81 353.47 456.23 379.13 431.72 C 393.00 418.47 406.81 405.16 423.77 395.82 C 429.83 392.48 436.24 389.78 442.92 386.58 C 441.71 382.82 440.40 378.79 439.21 375.10 C 427.79 377.96 416.99 381.37 405.94 383.18 C 398.71 384.37 390.98 384.08 383.70 382.96 C 371.88 381.14 369.11 376.35 371.63 365.52 C 362.61 364.33 353.52 363.35 344.53 361.84 C 339.26 360.96 334.30 359.05 330.84 354.41 C 325.65 347.43 327.92 339.90 336.39 337.87 C 342.66 336.37 349.14 335.75 355.66 333.80 C 351.88 333.21 348.11 332.62 344.33 332.02 C 335.19 330.57 326.49 327.97 319.16 322.02 C 315.34 318.92 312.21 315.47 312.98 309.83 C 313.80 303.90 316.48 300.44 322.20 299.07 C 324.73 298.46 327.31 298.04 329.27 297.65 C 327.59 295.57 325.83 293.46 324.16 291.30 C 315.85 280.58 320.71 266.96 335.10 262.49 C 344.73 259.50 354.76 257.79 364.63 255.58 C 367.53 254.93 370.48 254.50 372.90 254.06 C 381.70 219.93 405.65 203.66 437.71 197.17 C 444.31 195.83 451.65 196.37 458.33 197.67 C 466.93 199.35 468.84 203.06 467.92 211.33 C 476.79 207.08 485.57 202.53 494.64 198.63 C 505.83 193.83 517.56 191.28 529.82 193.06 C 542.71 194.93 549.80 204.11 549.42 213.67 C 549.13 221.04 546.80 228.43 544.61 235.58 C 542.46 242.58 539.34 249.29 536.69 256.01 C 553.80 253.56 569.24 256.52 582.49 266.89 C 593.91 275.82 594.03 289.34 584.44 300.12 C 578.49 306.80 571.89 312.32 563.91 316.27 C 563.17 316.63 562.51 317.18 561.88 317.71 C 561.54 318.00 561.34 318.45 560.64 319.46 C 562.44 319.11 563.62 318.94 564.77 318.64 C 570.00 317.27 573.19 319.33 571.82 324.42 C 570.46 329.47 567.94 334.91 564.28 338.50 C 551.19 351.31 534.60 357.73 517.06 361.86 C 512.39 362.96 507.63 363.66 502.18 364.69 C 504.15 369.87 506.05 374.86 508.26 380.66 C 521.17 374.55 533.77 369.01 545.97 362.69 C 564.46 353.12 583.02 343.85 602.98 337.67 C 613.46 334.42 613.89 334.52 617.94 345.10 C 675.48 324.84 718.37 285.86 755.81 237.50 Z M 389.57 548.89 C 391.08 546.18 392.79 543.70 393.93 540.98 C 404.32 516.15 414.62 491.28 424.92 466.41 C 425.55 464.88 425.90 463.21 426.66 461.75 C 427.03 461.04 428.04 460.66 428.75 460.12 C 429.21 461.06 430.02 461.99 430.03 462.94 C 430.04 464.03 429.31 465.12 428.97 466.23 C 424.77 480.03 419.90 493.68 416.61 507.69 C 413.71 520.04 412.57 532.80 410.59 545.87 C 440.97 544.26 470.31 543.01 499.61 541.06 C 529.03 539.10 558.41 536.45 588.19 534.08 C 587.93 532.35 587.87 530.88 587.48 529.51 C 583.84 516.74 580.99 503.66 576.28 491.30 C 566.16 464.78 555.04 438.64 544.38 412.33 C 543.61 410.43 543.23 408.38 542.67 406.40 C 543.28 406.16 543.89 405.92 544.50 405.68 C 545.39 407.06 546.48 408.34 547.15 409.82 C 551.75 419.97 556.46 430.07 560.68 440.37 C 562.18 444.04 564.09 444.70 567.45 443.66 C 581.88 439.21 596.44 435.14 610.74 430.29 C 623.30 426.02 623.61 425.59 622.23 412.63 C 619.96 391.31 617.22 370.03 614.37 348.78 C 612.61 335.61 611.27 337.86 602.04 341.84 C 570.96 355.26 540.17 369.35 509.31 383.17 C 510.06 385.78 510.71 388.09 511.43 390.58 C 510.05 391.09 509.16 391.61 508.22 391.73 C 490.91 393.93 473.61 396.32 456.26 398.14 C 447.12 399.10 447.08 398.64 443.34 390.73 C 442.31 391.09 441.23 391.43 440.19 391.84 C 419.09 400.09 402.32 414.47 386.30 429.89 C 362.53 452.76 338.84 475.70 315.03 498.53 C 310.92 502.47 306.39 505.97 302.05 509.68 C 331.43 522.84 360.32 535.79 389.57 548.89 Z M 233.57 729.72 C 234.63 730.10 235.68 730.48 236.74 730.86 C 283.37 670.64 323.82 606.11 367.03 542.62 C 352.65 536.14 338.90 530.02 325.24 523.70 C 322.54 522.45 321.43 523.52 320.05 525.52 C 283.77 578.13 247.38 630.65 211.19 683.32 C 204.04 693.73 197.54 704.61 190.96 715.40 C 188.75 719.04 190.60 721.99 194.66 721.09 C 197.44 720.47 200.54 718.52 202.21 716.22 C 206.02 711.01 209.01 705.20 212.42 699.69 C 212.86 698.97 213.79 698.55 214.87 697.69 C 215.43 699.48 215.83 700.76 216.44 702.70 C 219.93 701.55 223.62 701.11 226.38 699.28 C 233.82 694.33 240.82 688.74 248.11 683.55 C 249.05 682.88 250.61 683.10 251.89 682.91 C 251.51 684.02 251.46 685.54 250.69 686.18 C 244.95 690.97 239.06 695.58 233.23 700.26 C 231.96 701.28 230.34 702.13 229.58 703.46 C 226.27 709.22 223.19 715.12 220.08 721.00 C 218.71 723.59 217.35 726.51 220.83 728.36 C 224.26 730.18 227.18 729.23 229.15 725.60 C 233.75 717.12 238.40 708.67 243.19 700.30 C 243.95 698.97 245.52 698.10 246.71 697.02 C 246.64 698.75 247.12 700.77 246.40 702.16 C 242.66 709.40 238.50 716.42 234.76 723.65 C 233.85 725.41 233.95 727.68 233.58 729.72 Z M 618.30 348.53 C 620.85 369.11 623.36 389.32 625.91 409.90 C 628.21 409.15 630.35 408.76 632.20 407.79 C 646.46 400.35 660.95 393.29 674.80 385.16 C 697.56 371.81 719.32 356.77 736.84 336.89 C 760.75 309.75 781.50 280.16 800.30 249.24 C 801.79 246.79 802.84 244.08 804.09 241.48 C 803.71 241.08 803.34 240.69 802.96 240.29 C 797.85 241.05 793.00 242.74 789.65 247.14 C 785.52 252.57 781.89 258.37 777.85 263.86 C 776.44 265.77 774.45 267.25 772.73 268.93 C 773.46 266.55 773.76 263.91 775.02 261.85 C 778.74 255.75 783.04 249.99 786.67 243.84 C 787.65 242.18 787.05 239.59 787.17 237.42 C 784.87 237.69 782.14 237.27 780.38 238.38 C 777.34 240.30 774.68 242.98 772.25 245.69 C 767.69 250.76 763.48 256.14 758.94 261.23 C 758.03 262.25 756.28 262.52 754.91 263.14 C 754.68 262.64 754.46 262.14 754.23 261.63 C 756.17 259.15 758.08 256.65 760.04 254.19 C 762.06 251.65 764.13 249.15 766.12 246.71 C 764.19 245.84 762.64 245.28 761.23 244.48 C 759.85 243.69 758.62 242.66 756.98 241.49 C 719.93 289.55 676.45 328.76 618.30 348.54 Z M 431.94 288.22 C 434.05 288.52 435.71 288.70 437.34 289.01 C 444.35 290.34 450.72 296.38 450.98 301.90 C 451.22 307.06 447.88 311.88 442.78 313.73 C 435.57 316.34 429.75 315.23 426.20 310.38 C 424.83 308.51 424.18 305.97 422.52 304.50 C 420.32 302.56 417.56 300.36 414.85 300.07 C 407.23 299.25 400.10 304.89 398.26 312.26 C 396.44 319.53 400.41 329.03 407.47 332.02 C 411.92 333.91 416.99 334.69 421.85 335.13 C 426.11 335.51 431.92 332.91 434.41 334.91 C 437.45 337.35 437.74 343.22 439.23 347.60 C 441.79 355.09 444.37 362.57 446.96 370.12 C 445.29 371.10 444.04 371.82 442.65 372.63 C 444.46 378.88 446.54 384.86 447.85 391.01 C 448.57 394.41 449.95 395.45 453.18 395.09 C 464.41 393.84 475.67 392.81 486.89 391.47 C 493.56 390.68 500.18 389.47 507.13 388.40 C 505.52 383.96 504.02 380.28 502.88 376.50 C 501.91 373.27 500.21 372.64 496.98 373.31 C 486.45 375.51 475.86 375.93 465.38 372.99 C 463.70 372.52 462.22 371.36 460.64 370.52 L 460.94 369.14 C 462.45 368.74 463.94 368.12 465.48 367.98 C 479.74 366.71 493.36 363.15 505.87 356.09 C 515.28 350.78 523.83 344.42 528.29 333.99 C 535.48 317.18 533.94 300.53 525.88 284.73 C 519.50 272.22 509.11 262.96 497.19 255.62 C 495.70 254.70 493.06 254.59 491.39 255.22 C 487.54 256.68 484.10 259.25 480.24 260.64 C 464.05 266.46 448.03 273.03 430.48 273.24 C 430.98 278.30 431.45 283.08 431.95 288.23 Z M 687.18 895.48 C 659.00 792.25 625.22 691.69 590.82 591.34 C 590.20 591.53 589.58 591.72 588.96 591.91 C 595.12 611.73 601.27 631.55 607.43 651.36 C 607.12 651.68 606.81 652.00 606.51 652.32 C 600.51 648.88 593.99 646.11 588.61 641.88 C 573.28 629.83 566.41 612.93 563.00 594.29 C 562.73 592.84 561.90 591.49 561.34 590.09 C 560.12 591.30 559.86 592.13 559.97 592.89 C 564.14 621.31 576.08 644.07 604.80 654.79 C 606.67 655.49 608.77 657.42 609.41 659.25 C 612.22 667.35 614.62 675.59 616.98 683.83 C 618.34 688.59 619.15 693.50 620.54 698.25 C 621.71 702.25 623.61 706.04 624.76 710.05 C 628.21 722.07 631.31 734.20 634.80 746.20 C 638.71 759.66 642.90 773.05 646.97 786.47 C 650.46 797.95 653.83 809.47 657.49 820.89 C 661.53 833.51 665.86 846.05 670.04 858.63 C 671.96 864.40 675.02 870.11 675.38 875.99 C 675.78 882.45 684.22 888.22 675.62 896.01 C 680.60 895.78 683.94 895.62 687.22 895.47 Z M 352.39 899.63 C 349.96 910.93 347.73 921.30 345.30 932.56 C 361.94 931.24 377.41 930.07 392.85 928.68 C 393.82 928.59 395.12 926.94 395.45 925.78 C 397.65 918.00 399.63 910.16 401.82 901.83 C 385.40 901.10 369.21 900.38 352.39 899.63 Z M 635.44 931.93 C 652.28 929.62 668.60 927.38 685.13 925.11 C 682.90 916.22 680.83 907.98 678.71 899.55 C 662.45 901.06 646.99 902.50 631.13 903.97 C 632.61 913.56 634.01 922.66 635.43 931.93 Z M 768.44 154.24 C 764.75 171.59 753.12 183.48 740.06 194.44 C 735.04 198.66 730.56 203.52 726.79 207.17 C 737.82 217.16 748.50 226.62 758.93 236.34 C 765.58 242.54 765.58 242.85 771.53 236.31 C 784.19 222.40 796.93 208.56 809.11 194.25 C 815.29 186.98 820.34 178.74 825.59 171.38 C 806.36 165.61 787.85 160.06 768.43 154.24 Z M 404.37 897.82 C 412.48 898.94 414.16 892.91 416.54 888.61 C 443.26 840.32 467.35 790.71 490.14 740.46 C 490.53 739.61 490.63 738.62 490.87 737.70 C 475.29 763.68 460.56 789.99 446.42 816.60 C 432.24 843.29 418.60 870.27 404.37 897.82 Z M 474.77 256.03 C 475.64 255.91 476.51 255.78 477.38 255.66 C 477.00 251.23 477.24 246.62 476.08 242.40 C 474.37 236.19 474.78 233.22 479.74 229.37 C 485.56 224.85 492.49 227.08 493.82 234.34 C 494.52 238.15 493.78 242.22 493.60 246.17 C 493.53 247.65 493.20 249.12 492.99 250.60 C 498.87 245.52 498.84 239.35 497.05 232.94 C 495.70 228.12 492.84 224.45 487.55 223.98 C 479.31 223.25 474.35 228.06 470.84 234.98 C 463.85 232.41 457.02 231.58 451.39 237.45 C 448.11 240.87 446.41 245.07 449.17 249.71 C 450.92 252.66 452.40 256.21 458.28 255.91 C 456.29 253.77 455.11 252.53 453.96 251.26 C 449.47 246.26 451.67 238.44 457.94 237.04 C 467.23 234.97 473.74 240.06 474.07 249.56 C 474.15 251.72 474.53 253.87 474.77 256.02 Z M 225.06 704.51 C 220.88 705.11 218.08 705.34 215.36 705.96 C 214.09 706.25 212.57 706.99 211.88 708.01 C 209.38 711.70 207.20 715.60 204.87 719.40 C 202.75 722.87 204.92 724.72 207.76 724.86 C 209.90 724.96 212.98 723.87 214.15 722.23 C 218.02 716.79 221.22 710.87 225.06 704.51 Z M 495.11 679.66 C 495.11 681.94 494.91 682.59 495.14 682.85 C 500.13 688.36 505.07 693.93 510.29 699.21 C 511.17 700.10 513.82 700.44 514.85 699.78 C 520.87 695.91 526.66 691.66 532.53 687.54 C 532.34 687.06 532.16 686.58 531.97 686.10 C 530.66 686.37 529.14 686.30 528.07 686.96 C 524.83 688.94 521.73 691.16 518.64 693.37 C 512.52 697.74 512.52 697.78 507.14 692.24 C 503.40 688.39 499.72 684.48 495.11 679.65 Z M 432.79 951.52 C 436.22 946.27 434.38 938.73 429.21 934.98 C 422.92 930.41 408.93 928.81 401.42 931.82 C 424.73 932.37 427.94 937.20 432.79 951.53 Z M 728.15 947.44 C 731.91 936.83 719.50 925.90 703.34 927.65 C 712.31 930.62 720.58 937.22 728.15 947.44 Z M 557.40 561.80 C 556.06 554.68 554.97 548.91 553.88 543.13 L 551.84 543.04 C 551.59 545.12 550.65 547.41 551.22 549.22 C 552.48 553.16 550.96 558.49 557.40 561.79 Z M 446.09 564.22 C 447.30 564.02 448.44 564.02 448.48 563.79 C 449.41 559.35 450.25 554.89 450.95 550.40 C 451.01 550.01 449.90 549.44 449.34 548.96 C 448.67 549.77 447.52 550.51 447.40 551.40 C 446.83 555.45 446.54 559.55 446.09 564.22 Z" fill="#000000" fill-rule="nonzero" group-id="1" node-id="72" stroke="none" target-height="806.58" target-width="646.6" target-x="184.57" target-y="149.62"></path><path d="M 365.73 189.11 C 359.56 189.13 358.92 186.58 359.46 183.10 C 361.99 167.01 364.23 150.86 367.06 134.83 C 370.84 113.41 375.05 92.06 379.16 70.70 C 379.41 69.40 380.41 68.25 381.07 67.03 C 382.18 67.65 383.49 68.06 384.36 68.92 C 409.90 94.01 435.38 119.15 460.90 144.24 C 463.74 147.04 462.79 148.55 459.63 150.09 C 433.19 163.01 406.51 175.36 378.63 184.91 C 373.78 186.57 368.88 188.09 365.72 189.11 Z M 385.50 75.06 C 385.16 75.24 384.83 75.41 384.49 75.59 C 393.29 106.47 402.10 137.36 411.13 169.01 C 427.29 161.38 442.58 154.16 458.33 146.72 C 433.80 122.59 409.65 98.83 385.50 75.06 Z M 381.50 77.85 L 380.40 77.77 C 374.33 113.64 368.27 149.51 362.20 185.37 C 362.78 185.75 363.36 186.13 363.94 186.52 C 378.63 181.06 393.31 175.60 407.91 170.16 C 398.99 138.98 390.25 108.41 381.50 77.85 Z" fill="#000000" fill-rule="nonzero" group-id="1" node-id="74" stroke="none" target-height="122.100006" target-width="104.81998" target-x="358.92" target-y="67.03"></path><path d="M 708.19 74.89 C 707.47 77.76 707.10 79.73 706.48 81.61 C 699.25 103.34 691.97 125.05 684.73 146.78 C 683.52 150.40 682.25 154.02 681.43 157.74 C 680.44 162.24 678.27 162.71 674.24 161.17 C 661.71 156.38 649.08 151.84 636.43 147.37 C 632.53 145.99 628.47 145.04 624.44 144.09 C 621.28 143.35 620.31 141.79 621.54 138.70 C 625.58 128.52 629.32 118.22 633.58 108.13 C 638.50 96.48 643.68 84.97 644.11 72.03 C 644.21 69.13 645.86 68.98 648.23 69.75 C 665.45 75.38 683.11 75.68 700.92 73.95 C 702.23 73.82 703.55 73.01 704.78 73.18 C 706.03 73.35 707.18 74.33 708.20 74.88 Z M 677.52 157.88 C 685.50 130.79 697.77 105.14 703.50 77.15 C 684.30 79.01 666.01 78.42 647.67 73.63 C 645.42 98.06 630.70 117.60 624.98 139.93 C 642.55 145.93 659.74 151.81 677.52 157.89 Z" fill="#000000" fill-rule="nonzero" group-id="1" node-id="76" stroke="none" target-height="93.73" target-width="87.890015" target-x="620.31" target-y="68.98"></path><path d="M 596.60 233.38 C 605.78 226.69 613.55 221.52 620.75 215.64 C 627.30 210.30 633.36 204.33 639.35 198.35 C 642.74 194.97 644.39 194.72 645.92 199.51 C 649.29 210.08 652.36 220.77 654.86 231.58 C 656.35 238.02 656.77 244.74 657.16 251.37 C 657.27 253.20 656.08 256.05 654.60 256.89 C 646.81 261.33 638.77 265.36 630.70 269.29 C 629.62 269.81 627.12 269.44 626.53 268.60 C 622.16 262.34 618.67 255.38 613.79 249.58 C 608.92 243.79 602.75 239.09 596.58 233.39 Z M 604.25 232.89 C 612.78 243.73 621.43 254.73 630.24 265.93 C 636.67 262.68 643.99 259.21 651.02 255.23 C 652.53 254.38 654.00 251.51 653.76 249.82 C 652.11 238.39 650.22 226.98 647.93 215.65 C 646.88 210.47 644.76 205.50 643.35 201.14 C 629.80 212.14 616.71 222.78 604.25 232.89 Z" fill="#000000" fill-rule="nonzero" group-id="1" node-id="78" stroke="none" target-height="75.09" target-width="60.690002" target-x="596.58" target-y="194.72"></path><path d="M 294.57 146.88 C 298.27 145.80 301.22 144.94 304.17 144.07 C 304.41 144.70 304.65 145.32 304.88 145.95 C 302.27 147.22 299.67 148.50 296.52 150.04 C 299.27 154.11 301.96 158.10 304.66 162.09 C 304.32 162.45 303.98 162.80 303.64 163.16 C 302.50 162.35 301.18 161.71 300.27 160.70 C 298.83 159.11 297.51 157.36 296.42 155.51 C 294.34 151.96 291.92 150.58 288.01 153.07 C 287.13 153.63 285.48 152.97 284.18 152.87 C 284.18 152.41 284.16 151.95 284.15 151.49 C 286.34 150.56 288.52 149.63 290.63 148.73 C 291.13 144.93 284.47 143.41 287.63 138.31 C 290.22 141.52 292.45 144.27 294.57 146.88 Z" fill="#000000" fill-rule="nonzero" group-id="1" node-id="80" stroke="none" target-height="24.850006" target-width="20.730011" target-x="284.15" target-y="138.31"></path><path d="M 532.72 136.96 C 529.66 132.71 526.60 128.45 523.57 124.24 C 520.80 125.02 518.21 125.76 515.62 126.49 C 515.39 125.88 515.16 125.27 514.94 124.66 C 516.95 123.58 518.95 122.50 520.96 121.41 C 519.80 119.15 518.76 117.13 517.72 115.10 C 518.20 114.68 518.69 114.25 519.17 113.83 C 522.24 117.71 525.17 121.93 531.35 118.31 C 531.29 118.90 531.23 119.48 531.18 120.07 C 529.82 120.97 528.46 121.87 526.82 122.96 C 529.44 127.21 532.05 131.45 534.67 135.69 C 534.03 136.11 533.38 136.52 532.74 136.94 Z" fill="#000000" fill-rule="nonzero" group-id="1" node-id="82" stroke="none" target-height="23.130005" target-width="19.72998" target-x="514.94" target-y="113.83"></path><path d="M 277.33 265.51 C 274.43 261.34 271.53 257.17 268.63 253.01 C 266.50 254.10 264.60 255.07 262.70 256.03 C 264.73 251.54 264.97 247.08 263.40 242.65 C 263.79 242.33 264.17 242.02 264.56 241.70 C 265.98 243.72 267.39 245.74 268.98 248.01 C 271.10 246.98 273.31 245.91 275.51 244.85 C 275.74 245.24 275.98 245.63 276.21 246.02 C 274.51 247.43 272.82 248.85 270.67 250.64 C 273.45 255.19 276.23 259.74 279.01 264.28 C 278.45 264.69 277.89 265.10 277.33 265.50 Z" fill="#000000" fill-rule="nonzero" group-id="1" node-id="84" stroke="none" target-height="23.810013" target-width="16.309998" target-x="262.7" target-y="241.7"></path><path d="M 681.86 236.35 C 684.15 225.81 686.24 216.23 688.36 206.46 C 688.70 207.27 689.58 208.48 689.69 209.76 C 690.43 218.37 688.21 226.48 684.92 234.31 C 684.50 235.30 682.81 235.75 681.87 236.35 Z" fill="#000000" fill-rule="nonzero" group-id="1" node-id="86" stroke="none" target-height="29.89" target-width="8.570007" target-x="681.86" target-y="206.46"></path><path d="M 291.40 374.45 C 282.58 372.08 278.21 365.39 274.16 358.47 C 273.83 357.91 274.96 356.50 275.28 355.79 C 280.90 362.30 286.16 368.37 291.41 374.45 Z" fill="#000000" fill-rule="nonzero" group-id="1" node-id="88" stroke="none" target-height="18.660004" target-width="17.580017" target-x="273.83" target-y="355.79"></path><path d="M 285.44 336.89 C 287.37 342.76 289.37 348.81 291.62 355.66 C 290.52 354.95 289.11 354.46 288.31 353.47 C 283.83 347.97 282.84 340.63 285.44 336.89 Z" fill="#000000" fill-rule="nonzero" group-id="1" node-id="90" stroke="none" target-height="18.769989" target-width="8.779999" target-x="282.84" target-y="336.89"></path><path d="M 666.07 221.01 C 666.74 216.11 667.33 211.72 667.96 207.09 C 672.52 209.39 670.63 213.35 670.30 216.74 C 670.07 219.12 669.68 221.88 666.07 221.01 Z" fill="#000000" fill-rule="nonzero" group-id="1" node-id="92" stroke="none" target-height="14.790009" target-width="6.450012" target-x="666.07" target-y="207.09"></path><path d="M 389.57 548.89 C 360.32 535.79 331.43 522.84 302.05 509.68 C 306.39 505.97 310.92 502.47 315.03 498.53 C 338.84 475.71 362.53 452.76 386.30 429.89 C 402.33 414.47 419.10 400.08 440.19 391.84 C 441.24 391.43 442.31 391.09 443.34 390.73 C 447.08 398.64 447.13 399.10 456.26 398.14 C 473.61 396.32 490.91 393.93 508.22 391.73 C 509.16 391.61 510.05 391.08 511.43 390.58 C 510.72 388.08 510.06 385.78 509.31 383.17 C 540.17 369.35 570.96 355.26 602.04 341.84 C 611.27 337.86 612.61 335.61 614.37 348.78 C 617.22 370.03 619.96 391.31 622.23 412.63 C 623.61 425.59 623.30 426.02 610.74 430.29 C 596.45 435.15 581.89 439.21 567.45 443.66 C 564.09 444.70 562.17 444.03 560.68 440.37 C 556.46 430.07 551.75 419.96 547.15 409.82 C 546.48 408.34 545.40 407.05 544.50 405.68 C 543.89 405.92 543.28 406.16 542.67 406.40 C 543.23 408.38 543.61 410.43 544.38 412.33 C 555.04 438.64 566.15 464.78 576.28 491.30 C 581.00 503.66 583.84 516.74 587.48 529.51 C 587.87 530.88 587.93 532.35 588.19 534.08 C 558.41 536.46 529.03 539.11 499.61 541.06 C 470.32 543.01 440.98 544.26 410.59 545.87 C 412.58 532.80 413.71 520.04 416.61 507.69 C 419.90 493.68 424.77 480.03 428.97 466.23 C 429.31 465.12 430.04 464.03 430.03 462.94 C 430.02 462.00 429.21 461.06 428.75 460.12 C 428.03 460.65 427.03 461.03 426.66 461.75 C 425.90 463.21 425.55 464.88 424.92 466.41 C 414.61 491.28 404.32 516.15 393.93 540.98 C 392.79 543.70 391.08 546.18 389.57 548.89 Z M 445.98 514.69 C 450.15 510.91 450.39 505.75 447.23 503.22 C 446.78 507.32 446.38 511.01 445.98 514.69 Z M 551.51 386.33 C 554.67 382.79 553.92 377.84 549.63 374.57 C 550.21 378.17 550.78 381.78 551.51 386.33 Z M 347.03 513.58 C 347.62 513.66 348.21 513.74 348.80 513.82 C 352.61 507.33 352.69 506.39 349.20 504.36 C 348.45 507.54 347.75 510.56 347.04 513.58 Z M 597.03 398.73 C 596.33 401.91 595.64 404.63 595.24 407.39 C 595.19 407.70 597.04 408.81 597.54 408.57 C 599.13 407.81 599.06 400.84 597.03 398.72 Z M 342.07 491.12 C 345.70 485.79 345.54 482.58 342.07 480.69 L 342.07 491.12 Z M 558.96 512.14 L 556.63 512.57 C 556.99 515.41 557.35 518.25 557.72 521.08 C 558.49 520.96 559.26 520.84 560.02 520.72 C 559.66 517.86 559.31 515.00 558.95 512.14 Z M 405.48 459.99 L 403.30 458.50 C 401.70 461.07 400.10 463.63 398.51 466.20 C 399.18 466.64 399.85 467.07 400.52 467.51 C 402.17 465.01 403.83 462.50 405.48 460.00 Z" fill="#ffffff" fill-rule="nonzero" group-id="1" node-id="94" stroke="none" target-height="213.28003" target-width="321.56" target-x="302.05" target-y="335.61"></path><path d="M 233.57 729.72 C 233.94 727.68 233.84 725.41 234.75 723.65 C 238.50 716.42 242.65 709.39 246.39 702.16 C 247.11 700.76 246.63 698.75 246.70 697.02 C 245.51 698.10 243.94 698.97 243.18 700.30 C 238.39 708.67 233.74 717.12 229.14 725.60 C 227.17 729.23 224.25 730.18 220.82 728.36 C 217.34 726.51 218.70 723.59 220.07 721.00 C 223.18 715.12 226.26 709.23 229.57 703.46 C 230.33 702.13 231.95 701.28 233.22 700.26 C 239.05 695.58 244.94 690.97 250.68 686.18 C 251.45 685.53 251.50 684.02 251.88 682.91 C 250.60 683.10 249.04 682.88 248.10 683.55 C 240.82 688.74 233.81 694.33 226.37 699.28 C 223.61 701.12 219.92 701.55 216.43 702.70 C 215.82 700.76 215.42 699.48 214.86 697.69 C 213.78 698.55 212.85 698.97 212.41 699.69 C 209.00 705.20 206.01 711.01 202.20 716.22 C 200.52 718.51 197.43 720.47 194.65 721.09 C 190.59 722.00 188.74 719.04 190.95 715.40 C 197.53 704.60 204.02 693.73 211.18 683.32 C 247.37 630.65 283.76 578.12 320.04 525.52 C 321.42 523.51 322.53 522.45 325.23 523.70 C 338.89 530.02 352.64 536.14 367.02 542.62 C 323.80 606.11 283.36 670.64 236.73 730.86 C 235.67 730.48 234.62 730.10 233.56 729.72 Z" fill="#ffffff" fill-rule="nonzero" group-id="1" node-id="96" stroke="none" target-height="208.40997" target-width="178.27998" target-x="188.74" target-y="522.45"></path><path d="M 618.30 348.53 C 676.45 328.76 719.92 289.54 756.98 241.48 C 758.62 242.65 759.86 243.69 761.23 244.47 C 762.64 245.27 764.19 245.84 766.12 246.70 C 764.13 249.14 762.06 251.64 760.04 254.18 C 758.08 256.64 756.16 259.14 754.23 261.62 C 754.46 262.12 754.68 262.62 754.91 263.13 C 756.27 262.51 758.03 262.24 758.94 261.22 C 763.48 256.14 767.69 250.75 772.25 245.68 C 774.68 242.97 777.34 240.29 780.38 238.37 C 782.14 237.26 784.88 237.68 787.17 237.41 C 787.05 239.57 787.65 242.17 786.67 243.83 C 783.04 249.98 778.74 255.74 775.02 261.84 C 773.76 263.90 773.47 266.54 772.73 268.92 C 774.45 267.24 776.45 265.76 777.85 263.85 C 781.89 258.36 785.52 252.56 789.65 247.13 C 793.00 242.73 797.85 241.04 802.96 240.28 C 803.34 240.68 803.71 241.07 804.09 241.47 C 802.84 244.06 801.79 246.78 800.30 249.23 C 781.50 280.15 760.75 309.74 736.84 336.88 C 719.32 356.77 697.55 371.81 674.80 385.15 C 660.94 393.28 646.45 400.33 632.20 407.78 C 630.36 408.74 628.22 409.13 625.91 409.89 C 623.36 389.31 620.85 369.11 618.30 348.52 Z" fill="#ffffff" fill-rule="nonzero" group-id="1" node-id="98" stroke="none" target-height="172.63002" target-width="185.79004" target-x="618.3" target-y="237.26"></path><path d="M 431.94 288.22 C 431.44 283.07 430.97 278.29 430.47 273.23 C 448.02 273.02 464.04 266.45 480.23 260.63 C 484.10 259.24 487.53 256.67 491.38 255.21 C 493.06 254.57 495.69 254.69 497.18 255.61 C 509.10 262.95 519.50 272.21 525.87 284.72 C 533.93 300.52 535.47 317.17 528.28 333.98 C 523.82 344.41 515.27 350.77 505.86 356.08 C 493.35 363.14 479.73 366.70 465.47 367.97 C 463.94 368.11 462.44 368.73 460.93 369.13 L 460.63 370.51 C 462.20 371.35 463.69 372.51 465.37 372.98 C 475.85 375.93 486.45 375.50 496.97 373.30 C 500.20 372.63 501.90 373.26 502.87 376.49 C 504.01 380.28 505.51 383.95 507.12 388.39 C 500.17 389.46 493.55 390.66 486.88 391.46 C 475.66 392.79 464.40 393.83 453.17 395.08 C 449.94 395.44 448.56 394.40 447.84 391.00 C 446.53 384.86 444.46 378.88 442.64 372.62 C 444.03 371.81 445.28 371.08 446.95 370.11 C 444.35 362.55 441.78 355.07 439.22 347.59 C 437.72 343.21 437.44 337.34 434.40 334.90 C 431.90 332.90 426.09 335.50 421.84 335.12 C 416.97 334.68 411.91 333.89 407.46 332.01 C 400.40 329.02 396.43 319.52 398.25 312.25 C 400.09 304.89 407.22 299.24 414.84 300.06 C 417.55 300.35 420.31 302.55 422.51 304.49 C 424.17 305.95 424.82 308.50 426.19 310.37 C 429.74 315.22 435.56 316.33 442.77 313.72 C 447.87 311.87 451.21 307.05 450.97 301.89 C 450.71 296.38 444.33 290.33 437.33 289.00 C 435.70 288.69 434.04 288.51 431.93 288.21 Z M 489.37 321.05 C 496.73 320.80 503.33 317.95 507.53 310.89 C 508.13 309.87 507.75 308.27 507.82 306.94 C 506.70 307.50 505.15 307.75 504.52 308.66 C 497.26 318.97 486.01 320.60 475.66 312.81 C 474.82 312.18 473.44 312.27 472.31 312.02 C 472.63 313.16 472.60 314.67 473.34 315.39 C 477.60 319.54 482.91 321.12 489.38 321.07 Z M 493.03 297.08 C 497.31 299.44 498.21 296.20 499.58 294.26 C 501.16 292.02 501.55 289.74 498.95 287.75 C 495.00 284.73 491.19 281.53 487.15 278.65 C 486.06 277.87 484.35 277.96 482.92 277.65 C 483.52 278.96 483.79 280.69 484.79 281.52 C 488.70 284.75 492.84 287.70 496.90 290.76 C 495.51 293.04 494.41 294.84 493.05 297.09 Z M 467.44 292.91 C 468.18 292.87 468.93 292.83 469.67 292.79 C 470.94 291.04 473.66 288.51 473.22 287.68 C 472.00 285.39 469.64 283.41 467.28 282.22 C 466.67 281.92 462.89 285.34 463.14 286.50 C 463.64 288.84 465.91 290.79 467.45 292.91 Z M 497.61 277.45 C 501.20 279.81 503.42 281.83 506.02 282.67 C 506.89 282.95 509.54 280.42 509.95 278.82 C 510.66 275.98 506.64 272.25 503.46 272.84 C 501.83 273.14 500.50 275.08 497.61 277.45 Z M 452.98 283.13 C 458.67 280.26 463.64 277.76 469.54 274.78 C 460.48 273.00 454.84 275.91 452.98 283.13 Z M 487.80 272.37 C 493.62 270.41 498.70 268.70 503.82 266.98 C 498.66 262.79 491.67 264.76 487.80 272.37 Z" fill="#ffffff" fill-rule="nonzero" group-id="1" node-id="100" stroke="none" target-height="140.87" target-width="139.03998" target-x="396.43" target-y="254.57"></path><path d="M 687.18 895.48 C 683.91 895.63 680.57 895.79 675.58 896.02 C 684.18 888.22 675.74 882.45 675.34 876.00 C 674.98 870.13 671.92 864.41 670.00 858.64 C 665.82 846.06 661.50 833.53 657.45 820.90 C 653.79 809.48 650.42 797.96 646.93 786.48 C 642.85 773.06 638.67 759.68 634.76 746.21 C 631.27 734.20 628.17 722.08 624.72 710.06 C 623.57 706.05 621.67 702.26 620.50 698.26 C 619.11 693.51 618.30 688.60 616.94 683.84 C 614.59 675.60 612.18 667.36 609.37 659.26 C 608.74 657.43 606.63 655.50 604.76 654.80 C 576.05 644.08 564.10 621.32 559.93 592.90 C 559.82 592.13 560.08 591.31 561.30 590.10 C 561.87 591.50 562.70 592.85 562.96 594.30 C 566.37 612.94 573.25 629.84 588.57 641.89 C 593.95 646.12 600.47 648.89 606.47 652.33 C 606.78 652.01 607.09 651.69 607.39 651.37 C 601.23 631.55 595.08 611.73 588.92 591.92 C 589.54 591.73 590.16 591.54 590.78 591.35 C 625.19 691.70 658.96 792.26 687.14 895.49 Z" fill="#ffffff" fill-rule="nonzero" group-id="1" node-id="102" stroke="none" target-height="305.92004" target-width="127.359985" target-x="559.82" target-y="590.1"></path><path d="M 352.39 899.63 C 369.21 900.38 385.40 901.10 401.82 901.83 C 399.63 910.16 397.65 918.00 395.45 925.78 C 395.12 926.94 393.82 928.59 392.85 928.68 C 377.41 930.07 361.95 931.25 345.30 932.56 C 347.72 921.31 349.95 910.93 352.39 899.63 Z" fill="#ffffff" fill-rule="nonzero" group-id="1" node-id="104" stroke="none" target-height="32.929993" target-width="56.52002" target-x="345.3" target-y="899.63"></path><path d="M 635.44 931.93 C 634.01 922.66 632.61 913.56 631.14 903.97 C 647.00 902.50 662.46 901.06 678.72 899.55 C 680.84 907.98 682.90 916.22 685.14 925.11 C 668.61 927.38 652.29 929.62 635.45 931.93 Z" fill="#ffffff" fill-rule="nonzero" group-id="1" node-id="106" stroke="none" target-height="32.380005" target-width="54" target-x="631.14" target-y="899.55"></path><path d="M 768.44 154.24 C 787.85 160.06 806.37 165.61 825.60 171.38 C 820.35 178.75 815.30 186.99 809.12 194.25 C 796.94 208.57 784.19 222.41 771.54 236.31 C 765.59 242.85 765.60 242.54 758.94 236.34 C 748.51 226.62 737.83 217.16 726.80 207.17 C 730.57 203.52 735.04 198.65 740.07 194.44 C 753.13 183.48 764.76 171.59 768.45 154.24 Z M 768.36 235.52 C 784.82 214.59 805.38 197.20 817.47 172.73 C 801.77 168.92 786.20 165.13 770.08 161.22 C 766.04 182.06 748.91 193.46 735.20 206.79 C 746.34 216.45 757.11 225.78 768.36 235.53 Z" fill="#ffffff" fill-rule="nonzero" group-id="1" node-id="108" stroke="none" target-height="88.61" target-width="98.79999" target-x="726.8" target-y="154.24"></path><path d="M 404.37 897.82 C 418.60 870.28 432.24 843.30 446.42 816.60 C 460.56 789.99 475.28 763.68 490.87 737.70 C 490.63 738.62 490.53 739.61 490.14 740.46 C 467.36 790.71 443.27 840.32 416.54 888.61 C 414.16 892.91 412.48 898.94 404.37 897.82 Z" fill="#ffffff" fill-rule="nonzero" group-id="1" node-id="110" stroke="none" target-height="161.23999" target-width="86.5" target-x="404.37" target-y="737.7"></path><path d="M 474.77 256.03 C 474.53 253.88 474.14 251.73 474.07 249.57 C 473.74 240.07 467.24 234.98 457.94 237.05 C 451.67 238.44 449.48 246.27 453.96 251.27 C 455.10 252.54 456.28 253.78 458.28 255.92 C 452.40 256.22 450.92 252.67 449.17 249.72 C 446.42 245.08 448.11 240.88 451.39 237.46 C 457.02 231.59 463.84 232.42 470.84 234.99 C 474.36 228.07 479.31 223.26 487.55 223.99 C 492.84 224.46 495.70 228.13 497.05 232.95 C 498.84 239.37 498.87 245.54 492.99 250.61 C 493.20 249.13 493.53 247.66 493.60 246.18 C 493.78 242.23 494.52 238.15 493.82 234.35 C 492.49 227.09 485.56 224.86 479.74 229.38 C 474.78 233.23 474.37 236.20 476.08 242.41 C 477.24 246.63 477.00 251.24 477.38 255.67 C 476.51 255.79 475.64 255.92 474.77 256.04 Z" fill="#ffffff" fill-rule="nonzero" group-id="1" node-id="112" stroke="none" target-height="32.960007" target-width="52.44998" target-x="446.42" target-y="223.26"></path><path d="M 225.06 704.51 C 221.22 710.87 218.02 716.79 214.15 722.23 C 212.99 723.86 209.90 724.96 207.76 724.86 C 204.92 724.72 202.75 722.88 204.87 719.40 C 207.20 715.60 209.38 711.70 211.88 708.01 C 212.57 706.99 214.09 706.25 215.36 705.96 C 218.07 705.34 220.87 705.10 225.06 704.51 Z" fill="#ffffff" fill-rule="nonzero" group-id="1" node-id="114" stroke="none" target-height="20.450012" target-width="22.309998" target-x="202.75" target-y="704.51"></path><path d="M 495.11 679.66 C 499.72 684.49 503.40 688.40 507.14 692.25 C 512.52 697.80 512.52 697.76 518.64 693.38 C 521.73 691.17 524.84 688.95 528.07 686.97 C 529.14 686.31 530.66 686.38 531.97 686.11 C 532.16 686.59 532.34 687.07 532.53 687.55 C 526.66 691.67 520.88 695.92 514.85 699.79 C 513.82 700.45 511.17 700.11 510.29 699.22 C 505.06 693.94 500.12 688.37 495.14 682.86 C 494.91 682.60 495.11 681.95 495.11 679.67 Z" fill="#ffffff" fill-rule="nonzero" group-id="1" node-id="116" stroke="none" target-height="20.79004" target-width="37.620026" target-x="494.91" target-y="679.66"></path><path d="M 432.79 951.52 C 427.94 937.19 424.73 932.36 401.42 931.81 C 408.92 928.81 422.91 930.40 429.21 934.97 C 434.38 938.73 436.22 946.26 432.79 951.51 Z" fill="#ffffff" fill-rule="nonzero" group-id="1" node-id="118" stroke="none" target-height="22.710022" target-width="34.799988" target-x="401.42" target-y="928.81"></path><path d="M 728.15 947.44 C 720.57 937.22 712.30 930.62 703.34 927.65 C 719.50 925.90 731.91 936.83 728.15 947.44 Z" fill="#ffffff" fill-rule="nonzero" group-id="1" node-id="120" stroke="none" target-height="21.539978" target-width="28.569946" target-x="703.34" target-y="925.9"></path><path d="M 557.40 561.80 C 550.95 558.50 552.47 553.17 551.22 549.23 C 550.64 547.42 551.58 545.12 551.84 543.05 L 553.88 543.14 C 554.97 548.92 556.06 554.69 557.40 561.81 Z" fill="#ffffff" fill-rule="nonzero" group-id="1" node-id="122" stroke="none" target-height="18.76001" target-width="6.76001" target-x="550.64" target-y="543.05"></path><path d="M 446.09 564.22 C 446.54 559.55 446.83 555.46 447.40 551.40 C 447.53 550.51 448.67 549.77 449.34 548.96 C 449.91 549.44 451.01 550.01 450.95 550.40 C 450.25 554.88 449.41 559.34 448.48 563.79 C 448.43 564.02 447.30 564.02 446.09 564.22 Z" fill="#ffffff" fill-rule="nonzero" group-id="1" node-id="124" stroke="none" target-height="15.259949" target-width="4.9200134" target-x="446.09" target-y="548.96"></path><path d="M 385.50 75.06 C 409.65 98.82 433.80 122.58 458.33 146.72 C 442.58 154.16 427.29 161.38 411.13 169.01 C 402.10 137.35 393.30 106.47 384.49 75.59 C 384.83 75.41 385.16 75.24 385.50 75.06 Z" fill="#ffffff" fill-rule="nonzero" group-id="1" node-id="126" stroke="none" target-height="93.95" target-width="73.84" target-x="384.49" target-y="75.06"></path><path d="M 381.50 77.85 C 390.24 108.42 398.99 138.98 407.91 170.16 C 393.31 175.59 378.62 181.05 363.94 186.52 C 363.36 186.14 362.78 185.76 362.20 185.37 C 368.27 149.50 374.33 113.63 380.40 77.77 L 381.50 77.85 Z" fill="#ffffff" fill-rule="nonzero" group-id="1" node-id="128" stroke="none" target-height="108.75001" target-width="45.70999" target-x="362.2" target-y="77.77"></path><path d="M 677.52 157.88 C 659.74 151.80 642.55 145.93 624.98 139.92 C 630.70 117.59 645.42 98.05 647.67 73.62 C 666.01 78.40 684.29 78.99 703.50 77.14 C 697.77 105.13 685.50 130.79 677.52 157.87 Z M 675.27 153.12 C 682.82 129.12 690.34 105.18 698.21 80.17 L 649.31 80.17 C 648.17 99.99 635.39 117.01 630.95 136.87 C 646.02 142.40 660.73 147.79 675.26 153.13 Z" fill="#ffffff" fill-rule="nonzero" group-id="1" node-id="130" stroke="none" target-height="84.26" target-width="78.52002" target-x="624.98" target-y="73.62"></path><path d="M 604.25 232.89 C 616.70 222.78 629.80 212.14 643.35 201.14 C 644.76 205.51 646.89 210.47 647.93 215.65 C 650.22 226.97 652.11 238.38 653.76 249.82 C 654.00 251.51 652.53 254.37 651.02 255.23 C 643.99 259.21 636.67 262.68 630.24 265.93 C 621.43 254.73 612.78 243.74 604.25 232.89 Z M 642.05 209.86 C 630.88 218.11 620.03 226.11 609.66 233.76 C 616.25 242.52 623.26 251.86 630.32 261.24 C 636.04 258.50 641.78 255.97 647.28 252.98 C 648.67 252.23 650.20 250.00 650.12 248.54 C 649.36 234.94 646.38 221.77 642.06 209.85 Z" fill="#ffffff" fill-rule="nonzero" group-id="1" node-id="132" stroke="none" target-height="64.78999" target-width="49.75" target-x="604.25" target-y="201.14"></path><path d="M 445.98 514.69 C 446.38 511.01 446.78 507.33 447.23 503.22 C 450.39 505.74 450.15 510.91 445.98 514.69 Z" fill="#000000" fill-rule="nonzero" group-id="1" node-id="134" stroke="none" target-height="11.470001" target-width="4.4100037" target-x="445.98" target-y="503.22"></path><path d="M 551.51 386.33 C 550.78 381.78 550.21 378.17 549.63 374.57 C 553.92 377.84 554.67 382.79 551.51 386.33 Z" fill="#000000" fill-rule="nonzero" group-id="1" node-id="136" stroke="none" target-height="11.759979" target-width="5.039978" target-x="549.63" target-y="374.57"></path><path d="M 347.03 513.58 C 347.74 510.56 348.45 507.54 349.19 504.36 C 352.68 506.40 352.60 507.34 348.79 513.82 C 348.20 513.74 347.61 513.66 347.02 513.58 Z" fill="#000000" fill-rule="nonzero" group-id="1" node-id="138" stroke="none" target-height="9.460022" target-width="5.6600037" target-x="347.02" target-y="504.36"></path><path d="M 597.03 398.73 C 599.06 400.85 599.13 407.82 597.54 408.58 C 597.04 408.82 595.20 407.71 595.24 407.40 C 595.64 404.64 596.33 401.92 597.03 398.74 Z" fill="#000000" fill-rule="nonzero" group-id="1" node-id="140" stroke="none" target-height="10.089996" target-width="3.9299927" target-x="595.2" target-y="398.73"></path><path d="M 342.07 491.12 L 342.07 480.69 C 345.54 482.58 345.70 485.79 342.07 491.12 Z" fill="#000000" fill-rule="nonzero" group-id="1" node-id="142" stroke="none" target-height="10.429993" target-width="3.630005" target-x="342.07" target-y="480.69"></path><path d="M 558.96 512.14 C 559.32 515.00 559.67 517.86 560.03 520.72 C 559.26 520.84 558.49 520.96 557.73 521.08 C 557.37 518.24 557.01 515.40 556.64 512.57 L 558.97 512.14 Z" fill="#000000" fill-rule="nonzero" group-id="1" node-id="144" stroke="none" target-height="8.940002" target-width="3.3900146" target-x="556.64" target-y="512.14"></path><path d="M 405.48 459.99 C 403.83 462.49 402.17 465.00 400.52 467.50 C 399.85 467.06 399.18 466.63 398.51 466.19 C 400.11 463.62 401.71 461.06 403.30 458.49 L 405.48 459.98 Z" fill="#000000" fill-rule="nonzero" group-id="1" node-id="146" stroke="none" target-height="9.01001" target-width="6.970001" target-x="398.51" target-y="458.49"></path><path d="M 489.37 321.05 C 482.90 321.10 477.60 319.51 473.33 315.37 C 472.59 314.65 472.63 313.15 472.30 312.00 C 473.43 312.25 474.81 312.16 475.65 312.79 C 486.00 320.58 497.26 318.95 504.51 308.64 C 505.14 307.74 506.69 307.48 507.81 306.92 C 507.74 308.25 508.13 309.86 507.52 310.87 C 503.31 317.93 496.72 320.79 489.36 321.03 Z" fill="#000000" fill-rule="nonzero" group-id="1" node-id="148" stroke="none" target-height="14.179993" target-width="35.830017" target-x="472.3" target-y="306.92"></path><path d="M 493.03 297.08 C 494.40 294.83 495.50 293.03 496.88 290.75 C 492.82 287.69 488.68 284.74 484.77 281.51 C 483.77 280.68 483.50 278.96 482.90 277.64 C 484.33 277.95 486.04 277.86 487.13 278.64 C 491.17 281.52 494.98 284.73 498.93 287.74 C 501.53 289.73 501.14 292.01 499.56 294.25 C 498.19 296.19 497.29 299.43 493.01 297.07 Z" fill="#000000" fill-rule="nonzero" group-id="1" node-id="150" stroke="none" target-height="21.789978" target-width="18.630005" target-x="482.9" target-y="277.64"></path><path d="M 467.44 292.91 C 465.90 290.80 463.63 288.84 463.13 286.50 C 462.88 285.34 466.66 281.91 467.27 282.22 C 469.64 283.40 471.99 285.39 473.21 287.68 C 473.66 288.51 470.94 291.04 469.66 292.79 C 468.92 292.83 468.17 292.87 467.43 292.91 Z" fill="#000000" fill-rule="nonzero" group-id="1" node-id="152" stroke="none" target-height="11" target-width="10.779999" target-x="462.88" target-y="281.91"></path><path d="M 497.61 277.45 C 500.50 275.08 501.83 273.14 503.46 272.84 C 506.64 272.26 510.66 275.98 509.95 278.82 C 509.55 280.42 506.89 282.95 506.02 282.67 C 503.42 281.83 501.20 279.81 497.61 277.45 Z" fill="#000000" fill-rule="nonzero" group-id="1" node-id="154" stroke="none" target-height="10.690002" target-width="13.050018" target-x="497.61" target-y="272.26"></path><path d="M 452.98 283.13 C 454.84 275.92 460.48 273.01 469.54 274.78 C 463.64 277.75 458.67 280.26 452.98 283.13 Z" fill="#000000" fill-rule="nonzero" group-id="1" node-id="156" stroke="none" target-height="10.119995" target-width="16.559998" target-x="452.98" target-y="273.01"></path><path d="M 487.80 272.37 C 491.67 264.76 498.66 262.79 503.82 266.98 C 498.70 268.70 493.62 270.41 487.80 272.37 Z" fill="#000000" fill-rule="nonzero" group-id="1" node-id="158" stroke="none" target-height="9.579987" target-width="16.02002" target-x="487.8" target-y="262.79"></path><path d="M 768.36 235.52 C 757.11 225.77 746.34 216.44 735.20 206.78 C 748.90 193.45 766.04 182.06 770.08 161.21 C 786.21 165.13 801.78 168.91 817.47 172.72 C 805.37 197.19 784.81 214.58 768.36 235.51 Z M 814.49 173.89 C 800.32 170.38 786.10 166.86 772.74 163.55 C 767.80 171.79 763.86 180.36 758.08 187.44 C 752.19 194.65 744.50 200.38 737.84 206.53 C 748.06 215.35 757.81 223.76 768.08 232.62 C 783.57 212.90 803.15 196.91 814.50 173.89 Z" fill="#000000" fill-rule="nonzero" group-id="1" node-id="160" stroke="none" target-height="74.31" target-width="82.26996" target-x="735.2" target-y="161.21"></path><path d="M 675.27 153.12 C 660.74 147.79 646.02 142.39 630.96 136.86 C 635.40 117.00 648.17 99.98 649.32 80.16 L 698.22 80.16 C 690.36 105.17 682.83 129.11 675.28 153.11 Z M 674.07 150.81 C 681.26 128.04 688.44 105.29 695.79 81.99 L 652.58 81.99 C 646.06 99.69 639.46 117.63 632.81 135.71 C 646.91 140.87 660.70 145.92 674.07 150.81 Z" fill="#000000" fill-rule="nonzero" group-id="1" node-id="162" stroke="none" target-height="72.95999" target-width="67.25995" target-x="630.96" target-y="80.16"></path><path d="M 642.05 209.86 C 646.37 221.78 649.35 234.95 650.11 248.55 C 650.19 250.01 648.66 252.24 647.27 252.99 C 641.77 255.97 636.04 258.51 630.31 261.25 C 623.25 251.86 616.24 242.53 609.65 233.77 C 620.02 226.12 630.87 218.11 642.04 209.87 Z M 630.80 259.30 C 635.64 256.95 640.47 254.79 645.09 252.24 C 646.45 251.49 648.13 249.62 648.09 248.32 C 647.68 235.92 644.75 224.01 641.13 213.15 C 631.34 220.24 621.75 227.20 612.51 233.90 C 618.45 242.15 624.59 250.68 630.81 259.31 Z" fill="#000000" fill-rule="nonzero" group-id="1" node-id="164" stroke="none" target-height="51.39" target-width="40.539978" target-x="609.65" target-y="209.86"></path><path d="M 814.49 173.89 C 803.15 196.91 783.56 212.90 768.07 232.62 C 757.80 223.76 748.06 215.36 737.83 206.53 C 744.48 200.38 752.18 194.65 758.07 187.44 C 763.85 180.36 767.79 171.78 772.73 163.55 C 786.10 166.86 800.32 170.38 814.48 173.89 Z M 770.66 194.95 C 771.17 195.31 771.68 195.67 772.19 196.03 C 770.37 197.52 768.55 199.02 765.99 201.12 C 766.14 198.44 766.24 196.85 766.33 195.27 C 765.83 195.15 765.33 195.03 764.83 194.91 C 763.24 199.44 761.65 203.96 760.28 207.87 C 764.33 207.18 768.24 206.63 772.08 205.82 C 776.31 204.93 777.51 202.11 776.88 197.99 C 776.68 196.70 777.13 194.66 778.04 194.00 C 779.77 192.75 782.04 192.25 784.09 191.43 C 784.39 191.85 784.69 192.26 785.00 192.68 C 785.98 189.23 786.96 185.78 787.94 182.34 C 787.69 182.17 787.45 182.00 787.20 181.82 C 785.67 183.18 784.15 184.54 782.68 185.84 C 778.97 183.63 774.86 183.35 772.25 186.38 C 770.61 188.28 771.11 192.03 770.65 194.94 Z" fill="#ffffff" fill-rule="nonzero" group-id="1" node-id="166" stroke="none" target-height="69.06999" target-width="76.65997" target-x="737.83" target-y="163.55"></path><path d="M 674.07 150.81 C 660.70 145.92 646.91 140.87 632.81 135.71 C 639.46 117.63 646.07 99.69 652.58 81.99 L 695.79 81.99 C 688.44 105.29 681.26 128.03 674.07 150.81 Z M 659.91 115.20 C 657.72 119.09 655.61 122.83 652.94 127.58 C 651.99 124.28 651.42 122.28 650.76 119.98 C 644.32 124.20 648.91 127.13 651.09 129.96 C 649.91 131.86 648.92 133.46 647.45 135.84 C 649.43 135.84 651.21 136.14 651.34 135.80 C 653.17 131.06 657.09 131.92 660.95 131.29 C 664.11 130.77 668.09 128.44 669.42 125.77 C 670.38 123.84 667.73 119.98 666.39 117.12 C 665.80 115.84 664.49 114.90 663.50 113.79 C 665.44 109.61 667.29 105.65 669.13 101.70 C 669.55 101.86 669.96 102.01 670.38 102.17 L 670.38 107.13 C 675.61 104.04 675.75 102.21 671.91 98.88 L 671.91 93.25 C 670.67 94.25 669.51 95.37 668.17 96.21 C 666.94 96.97 665.55 97.85 664.18 97.94 C 659.35 98.25 655.92 100.37 654.36 104.99 C 652.66 110.04 656.52 112.46 659.91 115.23 Z" fill="#ffffff" fill-rule="nonzero" group-id="1" node-id="168" stroke="none" target-height="68.82" target-width="62.97998" target-x="632.81" target-y="81.99"></path><path d="M 630.80 259.30 C 624.59 250.67 618.44 242.14 612.50 233.89 C 621.74 227.19 631.34 220.24 641.12 213.14 C 644.74 224.01 647.66 235.92 648.08 248.31 C 648.12 249.61 646.44 251.48 645.08 252.23 C 640.46 254.78 635.63 256.94 630.79 259.29 Z M 633.24 230.84 C 633.00 235.15 622.44 237.27 631.66 242.77 C 626.64 249.01 633.30 249.28 635.33 251.22 C 636.85 249.46 638.38 247.73 639.87 245.96 C 641.83 243.63 642.12 241.36 638.84 240.16 C 635.38 238.89 635.84 237.30 637.83 235.09 C 638.41 234.44 638.66 233.48 639.23 232.32 C 637.12 231.80 635.42 231.38 633.24 230.85 Z" fill="#ffffff" fill-rule="nonzero" group-id="1" node-id="170" stroke="none" target-height="46.15999" target-width="35.619995" target-x="612.5" target-y="213.14"></path><path d="M 770.66 194.95 C 771.12 192.03 770.62 188.29 772.26 186.39 C 774.87 183.36 778.98 183.64 782.69 185.85 C 784.15 184.55 785.68 183.19 787.21 181.83 C 787.46 182.00 787.70 182.17 787.95 182.35 C 786.97 185.80 785.99 189.25 785.01 192.69 C 784.71 192.27 784.41 191.86 784.10 191.44 C 782.05 192.25 779.78 192.75 778.05 194.01 C 777.14 194.67 776.69 196.71 776.89 198.00 C 777.52 202.12 776.32 204.93 772.09 205.83 C 768.24 206.64 764.34 207.19 760.29 207.88 C 761.66 203.98 763.25 199.45 764.84 194.92 C 765.34 195.04 765.84 195.16 766.34 195.28 C 766.25 196.87 766.16 198.45 766.00 201.13 C 768.56 199.03 770.38 197.53 772.20 196.04 C 771.69 195.68 771.18 195.32 770.67 194.96 Z M 780.29 189.11 C 780.13 188.43 779.97 187.75 779.80 187.07 C 778.14 187.29 775.97 186.96 774.96 187.89 C 773.97 188.81 774.16 191.00 773.83 192.63 C 774.31 192.82 774.78 193.01 775.26 193.19 C 776.93 191.83 778.61 190.47 780.28 189.10 Z" fill="#000000" fill-rule="nonzero" group-id="1" node-id="172" stroke="none" target-height="26.050003" target-width="27.660034" target-x="760.29" target-y="181.83"></path><path d="M 659.91 115.20 C 656.52 112.43 652.66 110.01 654.36 104.96 C 655.92 100.34 659.35 98.22 664.18 97.91 C 665.55 97.82 666.94 96.95 668.17 96.18 C 669.51 95.35 670.67 94.22 671.91 93.22 L 671.91 98.85 C 675.75 102.18 675.61 104.01 670.38 107.10 L 670.38 102.14 C 669.96 101.98 669.55 101.83 669.13 101.67 C 667.29 105.63 665.45 109.58 663.50 113.76 C 664.49 114.87 665.79 115.82 666.39 117.09 C 667.72 119.95 670.37 123.82 669.42 125.74 C 668.09 128.41 664.12 130.75 660.95 131.26 C 657.08 131.89 653.17 131.02 651.34 135.77 C 651.21 136.11 649.43 135.81 647.45 135.81 C 648.92 133.43 649.92 131.83 651.09 129.93 C 648.91 127.10 644.33 124.17 650.76 119.95 C 651.42 122.25 652.00 124.25 652.94 127.55 C 655.62 122.80 657.72 119.07 659.91 115.17 Z M 663.56 116.98 L 662.06 117.25 C 660.25 120.72 658.44 124.18 656.51 127.88 C 660.77 129.30 664.76 128.75 666.05 125.38 C 666.88 123.22 664.50 119.82 663.56 116.97 Z M 665.49 101.10 C 661.00 100.94 657.84 102.23 657.44 106.01 C 657.25 107.88 659.45 109.99 660.58 112.00 C 661.02 111.80 661.47 111.60 661.91 111.39 C 663.03 108.17 664.15 104.95 665.49 101.10 Z" fill="#000000" fill-rule="nonzero" group-id="1" node-id="174" stroke="none" target-height="42.89" target-width="31.419983" target-x="644.33" target-y="93.22"></path><path d="M 633.24 230.84 C 635.41 231.37 637.12 231.79 639.23 232.31 C 638.66 233.47 638.41 234.43 637.83 235.08 C 635.85 237.29 635.39 238.89 638.84 240.15 C 642.11 241.35 641.83 243.62 639.87 245.95 C 638.38 247.72 636.85 249.45 635.33 251.21 C 633.31 249.27 626.65 249.00 631.66 242.76 C 622.44 237.27 633.01 235.14 633.24 230.83 Z" fill="#000000" fill-rule="nonzero" group-id="1" node-id="176" stroke="none" target-height="20.380005" target-width="19.669983" target-x="622.44" target-y="230.83"></path><path d="M 780.29 189.11 C 778.62 190.47 776.94 191.83 775.27 193.20 C 774.79 193.01 774.32 192.82 773.84 192.64 C 774.17 191.01 773.98 188.81 774.97 187.90 C 775.98 186.97 778.15 187.30 779.81 187.08 C 779.97 187.76 780.13 188.44 780.30 189.12 Z" fill="#ffffff" fill-rule="nonzero" group-id="1" node-id="178" stroke="none" target-height="6.2299957" target-width="6.459961" target-x="773.84" target-y="186.97"></path><path d="M 663.56 116.98 C 664.50 119.82 666.88 123.22 666.05 125.39 C 664.76 128.75 660.77 129.30 656.51 127.89 C 658.44 124.19 660.25 120.72 662.06 117.26 L 663.56 116.99 Z" fill="#ffffff" fill-rule="nonzero" group-id="1" node-id="180" stroke="none" target-height="12.32" target-width="10.369995" target-x="656.51" target-y="116.98"></path><path d="M 665.49 101.10 C 664.15 104.95 663.03 108.17 661.91 111.39 C 661.47 111.59 661.02 111.79 660.58 112.00 C 659.46 110.00 657.25 107.88 657.44 106.01 C 657.83 102.24 661.00 100.94 665.49 101.10 Z" fill="#ffffff" fill-rule="nonzero" group-id="1" node-id="182" stroke="none" target-height="11.059998" target-width="8.23999" target-x="657.25" target-y="100.94"></path></g></svg>